# xmcd
#
# Track frame offsets:
# 150
# 11960
# 24560
# 39277
# 53277
# 65712
# 80097
# 94612
# 108265
# 123682
# 137667
# 149780
# 162892
# 174030
# 185862
# 198530
# 211542
# 225572
# 238182
# 250937
# 265247
# 276897
# 289937
# 302312
# 312870
#
# Disc length: 4333 seconds
#
# Revision: 0
# Processed by: cddbd v1.4PL0 Copyright (c) Steve Scherf et al.
# Submitted via: Audion 3.0.2 (http://www.panic.com/audion/)
#
DISCID=6510eb19
DTITLE=Various Artist - Blues, Boogie and Beat
DYEAR=1900
DGENRE=
TTITLE0=Billy Lyons and Stack O'Lee/Furry Lewis
TTITLE1=Cottonfield Blues/Henry Thomas
TTITLE2=Kansas City Blues - pt. 1/Jim Jackson
TTITLE3=It's Tight Like That/Tampa Red and Georgia Tom
TTITLE4=How Long, How Long Blues - no. 2/Leroy Carr
TTITLE5=Pine Top's Boogie Woogie/Pine Top Smith
TTITLE6=The Dirty Dozen - no. 1/Speckled Red
TTITLE7=Someday Baby Blues/Sleepy John Estes
TTITLE8=Old Black Cat Blues/Kokomo Arnold
TTITLE9=Moaning the Blues/Memphis Minnie
TTITLE10=Family Trouble Blues/Andrew Hogg
TTITLE11=Got a Gal/Joe Turner and Pete Johnson
TTITLE12=Playing Myself the Blues/Cecil Gant
TTITLE13=Dr. Ross' Boogie/Dr. Ross
TTITLE14=Rocket 88/Jackie Brenston with Ike Turner
TTITLE15=I'm Wild About You Baby/Lightnin' Hopkins
TTITLE16=Rollin' Stone/Muddy Waters
TTITLE17=Fast Boogie/Little Walter
TTITLE18=Walkin' the Boogie/John Lee Hooker
TTITLE19=Reconsider Baby/Lowell Fulson
TTITLE20=Ain't That Dandy/Gatemouth Brown
TTITLE21=Bajou Drive/Clifton Chenier
TTITLE22=The Sun is Shining/Elmore James
TTITLE23=First Time I Met the Blues/Buddy Guy
TTITLE24=Flower Blues/T-Bone Walker
EXTD=
EXTT0=
EXTT1=
EXTT2=
EXTT3=
EXTT4=
EXTT5=
EXTT6=
EXTT7=
EXTT8=
EXTT9=
EXTT10=
EXTT11=
EXTT12=
EXTT13=
EXTT14=
EXTT15=
EXTT16=
EXTT17=
EXTT18=
EXTT19=
EXTT20=
EXTT21=
EXTT22=
EXTT23=
EXTT24=
PLAYORDER=
